#!OML:ASF H:\ManfredETheater\Project 1\Capture day 1\Session 1\subject.ASF
:FULLY-SPECIFIED
:DEGREES
217
root -10.4559 17.6924 -31.4086 -183.018 -28.1832 181.831
lowerback 8.16418 -1.07426 0.884921
upperback -1.74231 -1.23343 2.91973
thorax -6.36593 -0.610923 2.73191
lowerneck -18.5143 -1.57529 -2.59568
upperneck 19.3369 -1.12794 -2.38458
head 9.14461 -1.08567 -0.554705
rclavicle -4.62423e-014 -2.62396e-014
rhumerus -46.2398 -22.9295 -50.0936
rradius 24.7782
rwrist 9.75277
rhand -21.9165 -10.7374
rfingers 7.12502
rthumb 4.4894 -40.6698
lclavicle -4.62423e-014 -2.62396e-014
lhumerus -39.8414 0.0556654 88.5922
lradius 52.3606
lwrist -4.70426
lhand -18.9685 0.202073
lfingers 7.12502
lthumb 7.3356 30.0549
rfemur -18.9815 -0.657449 21.7485
rtibia 38.6053
rfoot -14.9951 -8.51772
rtoes -14.0257
lfemur -25.1103 -8.90757 -19.8426
ltibia 47.0101
lfoot -16.9161 -4.85478
ltoes 7.37155
218
root -10.4743 17.7082 -31.4762 -182.797 -28.3516 181.716
lowerback 8.00025 -1.0492 0.705998
upperback -1.77992 -1.22075 2.86824
thorax -6.30976 -0.597564 2.77272
lowerneck -18.5669 -1.58337 -2.62023
upperneck 19.6538 -1.13619 -2.3896
head 9.26448 -1.10253 -0.558281
rclavicle -2.15681e-014 3.49861e-014
rhumerus -47.103 -23.7726 -49.3565
rradius 24.7607
rwrist 9.68413
rhand -22.4176 -11.0366
rfingers 7.12502
rthumb 4.00556 -40.9787
lclavicle -2.15681e-014 3.49861e-014
lhumerus -39.8027 0.948176 88.314
lradius 51.7404
lwrist -4.66803
lhand -18.9546 0.765505
lfingers 7.12502
lthumb 7.34896 30.6179
rfemur -18.7644 -0.542763 21.6815
rtibia 38.403
rfoot -15.2471 -8.76402
rtoes -13.8409
lfemur -24.9109 -8.95787 -19.9165
ltibia 46.7782
lfoot -17.0762 -4.95705
ltoes 7.493
219
root -10.4925 17.7227 -31.5427 -182.611 -28.5441 181.645
lowerback 7.85122 -1.04011 0.573999
upperback -1.80821 -1.22438 2.82249
thorax -6.25244 -0.59432 2.7956
lowerneck -18.618 -1.59054 -2.65309
upperneck 19.9622 -1.1455 -2.37439
head 9.38176 -1.118 -0.553611
rclavicle -2.89977e-014 1.51076e-014
rhumerus -47.9324 -24.5902 -48.6956
rradius 24.7724
rwrist 9.57696
rhand -22.928 -11.2899
rfingers 7.12502
rthumb 3.51264 -41.2407
lclavicle -2.89977e-014 1.51076e-014
lhumerus -39.782 1.81254 88.0364
lradius 51.1325
lwrist -4.52586
lhand -18.9902 1.34856
lfingers 7.12502
lthumb 7.31462 31.2021
rfemur -18.5259 -0.459374 21.6535
rtibia 38.1921
rfoot -15.5115 -9.00815
rtoes -13.7059
lfemur -24.7207 -9.01633 -19.951
ltibia 46.5825
lfoot -17.2495 -5.07992
ltoes 7.61172
220
root -10.5103 17.736 -31.6076 -182.475 -28.7393 181.664
lowerback 7.72094 -1.0428 0.524847
upperback -1.83166 -1.23521 2.7957
thorax -6.20178 -0.598026 2.79317
lowerneck -18.6698 -1.59324 -2.68566
upperneck 20.2648 -1.15116 -2.34911
head 9.49764 -1.13049 -0.544993
rclavicle -1.72446e-014 -1.27222e-014
rhumerus -48.7096 -25.3662 -48.1272
rradius 24.805
rwrist 9.41853
rhand -23.4171 -11.4946
rfingers 7.12502
rthumb 3.04031 -41.4527
lclavicle -1.72446e-014 -1.27222e-014
lhumerus -39.7828 2.63594 87.7622
lradius 50.5448
lwrist -4.29658
lhand -19.0642 1.93103
lfingers 7.12502
lthumb 7.24321 31.7871
rfemur -18.2789 -0.381125 21.714
rtibia 37.9646
rfoot -15.7697 -9.2592
rtoes -13.6233
lfemur -24.5557 -9.07315 -19.8951
ltibia 46.4297
lfoot -17.4374 -5.21597
ltoes 7.7254
221
root -10.528 17.7481 -31.6711 -182.363 -28.9314 181.735
lowerback 7.59581 -1.05374 0.527201
upperback -1.85184 -1.25211 2.77868
thorax -6.15122 -0.606855 2.77284
lowerneck -18.7095 -1.5915 -2.7091
upperneck 20.5523 -1.15334 -2.3279
head 9.60636 -1.14086 -0.538542
rclavicle -5.19325e-014 1.51076e-014
rhumerus -49.4287 -26.0999 -47.6526
rradius 24.8544
rwrist 9.22155
rhand -23.8555 -11.6437
rfingers 7.12502
rthumb 2.61692 -41.6074
lclavicle -5.19325e-014 1.51076e-014
lhumerus -39.799 3.40676 87.4945
lradius 49.9705
lwrist -4.00645
lhand -19.1695 2.46472
lfingers 7.12502
lthumb 7.14153 32.3242
rfemur -18.034 -0.317453 21.8254
rtibia 37.7263
rfoot -16.0187 -9.50488
rtoes -13.6044
lfemur -24.4139 -9.13227 -19.7865
ltibia 46.3112
lfoot -17.6368 -5.35296
ltoes 7.83513
222
root -10.5457 17.7592 -31.7332 -182.272 -29.1093 181.861
lowerback 7.47617 -1.06951 0.584318
upperback -1.87433 -1.27025 2.77247
thorax -6.10717 -0.618449 2.7334
lowerneck -18.7427 -1.58239 -2.723
upperneck 20.8338 -1.14784 -2.31122
head 9.71205 -1.14748 -0.534093
rclavicle 3.37437e-014 -5.56597e-015
rhumerus -50.0818 -26.7811 -47.2786
rradius 24.9154
rwrist 8.98193
rhand -24.2241 -11.7368
rfingers 7.12502
rthumb 2.26093 -41.7046
lclavicle 3.37437e-014 -5.56597e-015
lhumerus -39.8335 4.11624 87.2349
lradius 49.4092
lwrist -3.68426
lhand -19.2898 2.91029
lfingers 7.12502
lthumb 7.02543 32.7737
rfemur -17.8006 -0.261511 21.9911
rtibia 37.4776
rfoot -16.2514 -9.74171
rtoes -13.6423
lfemur -24.3021 -9.19124 -19.6215
ltibia 46.227
lfoot -17.8487 -5.47895
ltoes 7.93141
223
root -10.564 17.7694 -31.7945 -182.179 -29.2725 181.996
lowerback 7.34545 -1.08822 0.653782
upperback -1.8935 -1.29175 2.76712
thorax -6.05343 -0.63229 2.68788
lowerneck -18.7692 -1.56683 -2.72699
upperneck 21.1065 -1.13543 -2.3013
head 9.81366 -1.15083 -0.532552
rclavicle -3.47873e-014 5.56597e-015
rhumerus -50.6572 -27.4013 -47.0199
rradius 24.988
rwrist 8.70046
rhand -24.5181 -11.7593
rfingers 7.12502
rthumb 1.97697 -41.7299
lclavicle -3.47873e-014 5.56597e-015
lhumerus -39.8841 4.7486 86.9988
lradius 48.8842
lwrist -3.3258
lhand -19.4284 3.40675
lfingers 7.12502
lthumb 6.89159 33.2746
rfemur -17.5815 -0.229261 22.1637
rtibia 37.2306
rfoot -16.4735 -9.955
rtoes -13.7455
lfemur -24.2069 -9.25302 -19.4492
ltibia 46.1629
lfoot -18.0687 -5.58506
ltoes 8.02115
224
root -10.582 17.7788 -31.8544 -182.086 -29.4058 182.161
lowerback 7.21505 -1.10442 0.747697
upperback -1.91923 -1.30773 2.77054
thorax -6.00745 -0.644312 2.63729
lowerneck -18.7823 -1.54375 -2.71054
upperneck 21.3671 -1.11426 -2.31459
head 9.90856 -1.15121 -0.541083
rclavicle -2.73826e-014 -1.98785e-014
rhumerus -51.1533 -27.9479 -46.8805
rradius 25.0697
rwrist 8.39366
rhand -24.7366 -11.7088
rfingers 7.12502
rthumb 1.76595 -41.6812
lclavicle -2.73826e-014 -1.98785e-014
lhumerus -39.9566 5.29372 86.7919
lradius 48.3917
lwrist -2.92796
lhand -19.5859 3.90018
lfingers 7.12502
lthumb 6.73954 33.7729
rfemur -17.3942 -0.187828 22.3688
rtibia 36.9901
rfoot -16.6811 -10.1619
rtoes -13.8896
lfemur -24.1427 -9.30939 -19.2422
ltibia 46.1164
lfoot -18.289 -5.66664
ltoes 8.10509
225
root -10.6009 17.7875 -31.9141 -181.965 -29.5283 182.283
lowerback 7.06991 -1.12181 0.810099
upperback -1.94397 -1.32885 2.76307
thorax -5.95136 -0.657693 2.59311
lowerneck -18.7963 -1.51484 -2.68996
upperneck 21.6293 -1.08594 -2.3307
head 10.0045 -1.14854 -0.550409
rclavicle 2.87244e-014 -2.38542e-015
rhumerus -51.5647 -28.4166 -46.8689
rradius 25.1589
rwrist 8.06817
rhand -24.8789 -11.5885
rfingers 7.12502
rthumb 1.62853 -41.5621
lclavicle 2.87244e-014 -2.38542e-015
lhumerus -40.0452 5.75166 86.6146
lradius 47.9311
lwrist -2.52579
lhand -19.7522 4.36135
lfingers 7.12502
lthumb 6.57907 34.2392
rfemur -17.2238 -0.189453 22.5283
rtibia 36.7658
rfoot -16.8914 -10.3302
rtoes -14.0942
lfemur -24.0823 -9.37193 -19.0822
ltibia 46.0749
lfoot -18.5126 -5.72149
ltoes 8.18545
